<svg width="24" height="24" viewBox="0 0 24 24" fill="none" xmlns="http://www.w3.org/2000/svg">
<circle cx="12" cy="12" r="5" stroke="currentColor" stroke-width="2"/>
<path d="m12 1-1 2-1-2h2z" fill="currentColor"/>
<path d="M12 21v2h0v-2z" stroke="currentColor" stroke-width="2" stroke-linecap="round"/>
<path d="m4.22 4.22-1.42 1.42 2.83 2.83-1.41-1.41-1.42-1.42z" fill="currentColor"/>
<path d="m19.78 19.78 1.42-1.42-2.83-2.83 1.41 1.41 1.42 1.42z" fill="currentColor"/>
<path d="M1 12h2v0h-2z" stroke="currentColor" stroke-width="2" stroke-linecap="round"/>
<path d="M21 12h2v0h-2z" stroke="currentColor" stroke-width="2" stroke-linecap="round"/>
<path d="m4.22 19.78 1.42-1.42 2.83 2.83-1.41-1.41-1.42-1.42z" fill="currentColor"/>
<path d="m19.78 4.22-1.42 1.42-2.83-2.83 1.41 1.41 1.42 1.42z" fill="currentColor"/>
</svg>